<svg id="visual" viewBox="0 0 900 600" width="900" height="600" xmlns="http://www.w3.org/2000/svg" xmlns:xlink="http://www.w3.org/1999/xlink" version="1.1"><rect x="0" y="0" width="900" height="600" fill="#140021"></rect><path d="M333 0L351 0L351 26L500 26L500 52L355 52L355 78L338 78L338 104L338 104L338 130L405 130L405 157L521 157L521 183L364 183L364 209L381 209L381 235L470 235L470 261L369 261L369 287L488 287L488 313L466 313L466 339L471 339L471 365L496 365L496 391L401 391L401 417L460 417L460 443L409 443L409 470L390 470L390 496L332 496L332 522L473 522L473 548L411 548L411 574L342 574L342 600L0 600L0 574L0 574L0 548L0 548L0 522L0 522L0 496L0 496L0 470L0 470L0 443L0 443L0 417L0 417L0 391L0 391L0 365L0 365L0 339L0 339L0 313L0 313L0 287L0 287L0 261L0 261L0 235L0 235L0 209L0 209L0 183L0 183L0 157L0 157L0 130L0 130L0 104L0 104L0 78L0 78L0 52L0 52L0 26L0 26L0 0L0 0Z" fill="#9900ff"></path><path d="M295 0L295 0L295 26L263 26L263 52L352 52L352 78L261 78L261 104L268 104L268 130L272 130L272 157L375 157L375 183L251 183L251 209L307 209L307 235L253 235L253 261L314 261L314 287L269 287L269 313L245 313L245 339L355 339L355 365L317 365L317 391L382 391L382 417L317 417L317 443L298 443L298 470L352 470L352 496L338 496L338 522L272 522L272 548L301 548L301 574L350 574L350 600L0 600L0 574L0 574L0 548L0 548L0 522L0 522L0 496L0 496L0 470L0 470L0 443L0 443L0 417L0 417L0 391L0 391L0 365L0 365L0 339L0 339L0 313L0 313L0 287L0 287L0 261L0 261L0 235L0 235L0 209L0 209L0 183L0 183L0 157L0 157L0 130L0 130L0 104L0 104L0 78L0 78L0 52L0 52L0 26L0 26L0 0L0 0Z" fill="#8200d9"></path><path d="M164 0L270 0L270 26L152 26L152 52L207 52L207 78L283 78L283 104L153 104L153 130L299 130L299 157L184 157L184 183L178 183L178 209L184 209L184 235L265 235L265 261L163 261L163 287L226 287L226 313L160 313L160 339L267 339L267 365L297 365L297 391L179 391L179 417L171 417L171 443L173 443L173 470L225 470L225 496L166 496L166 522L247 522L247 548L267 548L267 574L154 574L154 600L0 600L0 574L0 574L0 548L0 548L0 522L0 522L0 496L0 496L0 470L0 470L0 443L0 443L0 417L0 417L0 391L0 391L0 365L0 365L0 339L0 339L0 313L0 313L0 287L0 287L0 261L0 261L0 235L0 235L0 209L0 209L0 183L0 183L0 157L0 157L0 130L0 130L0 104L0 104L0 78L0 78L0 52L0 52L0 26L0 26L0 0L0 0Z" fill="#6c00b4"></path><path d="M113 0L94 0L94 26L99 26L99 52L99 52L99 78L187 78L187 104L95 104L95 130L126 130L126 157L131 157L131 183L65 183L65 209L180 209L180 235L88 235L88 261L103 261L103 287L86 287L86 313L184 313L184 339L126 339L126 365L166 365L166 391L153 391L153 417L115 417L115 443L107 443L107 470L184 470L184 496L181 496L181 522L133 522L133 548L112 548L112 574L91 574L91 600L0 600L0 574L0 574L0 548L0 548L0 522L0 522L0 496L0 496L0 470L0 470L0 443L0 443L0 417L0 417L0 391L0 391L0 365L0 365L0 339L0 339L0 313L0 313L0 287L0 287L0 261L0 261L0 235L0 235L0 209L0 209L0 183L0 183L0 157L0 157L0 130L0 130L0 104L0 104L0 78L0 78L0 52L0 52L0 26L0 26L0 0L0 0Z" fill="#560090"></path></svg>